<svg xmlns="http://www.w3.org/2000/svg" xmlns:xlink="http://www.w3.org/1999/xlink" viewBox="0 0 512 512"><defs><style>.a{fill:url(#a);}.b{fill:url(#b);}.c{fill:url(#c);}.d{fill:url(#d);}.e{fill:#fff2eb;}.f{fill:url(#e);}.g{fill:url(#f);}</style><linearGradient id="a" x1="395.78" y1="438.61" x2="719.69" y2="676.63" gradientTransform="translate(-57.07 -143.66)" gradientUnits="userSpaceOnUse"><stop offset="0" stop-color="#b8de6f"/><stop offset="1" stop-color="#8aa753"/></linearGradient><linearGradient id="b" x1="379.37" y1="459.61" x2="684.32" y2="721.47" gradientTransform="translate(-57.07 -143.66)" gradientUnits="userSpaceOnUse"><stop offset="0" stop-color="#fe7695"/><stop offset="1" stop-color="#fe547b"/></linearGradient><linearGradient id="c" x1="361.42" y1="479.33" x2="645.65" y2="763.56" gradientTransform="translate(-57.07 -143.66)" gradientUnits="userSpaceOnUse"><stop offset="0" stop-color="#67dcdc"/><stop offset="1" stop-color="#019394"/></linearGradient><linearGradient id="d" x1="285.56" y1="373.76" x2="285.56" y2="861.76" gradientTransform="translate(-57.07 -143.66)" gradientUnits="userSpaceOnUse"><stop offset="0" stop-color="#fcc344"/><stop offset="1" stop-color="#f7ae3d"/></linearGradient><linearGradient id="e" x1="241.52" y1="603.86" x2="241.52" y2="650.91" gradientTransform="translate(-57.07 -143.66)" gradientUnits="userSpaceOnUse"><stop offset="0" stop-color="#fcc344" stop-opacity="0"/><stop offset="1" stop-color="#d48000"/></linearGradient><linearGradient id="f" x1="413.89" y1="586.91" x2="481.32" y2="665.31" gradientTransform="translate(-57.07 -143.66)" gradientUnits="userSpaceOnUse"><stop offset="0" stop-color="#fcc344"/><stop offset="1" stop-color="#d48000"/></linearGradient></defs><path class="a" d="M453.38,21.15l58.36,381.64a22.64,22.64,0,0,1-18.95,25.79L111.15,486.93A22.64,22.64,0,0,1,85.36,468L27,86.34A22.63,22.63,0,0,1,46,60.56L427.6,2.2A22.63,22.63,0,0,1,453.38,21.15Z"/><path class="b" d="M457.45,51.6l29.27,385a22.64,22.64,0,0,1-20.85,24.27l-385,29.26a22.63,22.63,0,0,1-24.27-20.84l-29.26-385A22.63,22.63,0,0,1,48.21,60l385-29.26A22.62,22.62,0,0,1,457.45,51.6Z"/><path class="c" d="M459.21,82.28V468.36A22.63,22.63,0,0,1,436.58,491H50.5a22.62,22.62,0,0,1-22.62-22.62V82.28A22.62,22.62,0,0,1,50.5,59.66H436.58A22.63,22.63,0,0,1,459.21,82.28Z"/><path class="d" d="M314.92,511.27l-294-22.12A22.64,22.64,0,0,1,.06,464.89l29-385A22.62,22.62,0,0,1,53.28,59l385,29a22.62,22.62,0,0,1,20.86,24.26l-22.56,299.9a13.22,13.22,0,0,1-4.47,8.94l-94.72,82.69A30.7,30.7,0,0,1,314.92,511.27Z"/><rect class="e" x="229.61" y="47.63" width="25.1" height="334.55" transform="translate(9.55 440.12) rotate(-85.66)"/><rect class="e" x="224.78" y="111.34" width="25.1" height="334.55" transform="translate(-58.43 494.19) rotate(-85.66)"/><rect class="e" x="176.6" y="215.21" width="25.1" height="247.62" transform="translate(-163.2 501.99) rotate(-85.66)"/><path class="f" d="M337.39,503.79l33.39-29.16L1.42,446.85l-1.35,18A22.62,22.62,0,0,0,19.77,489c.38.05.77.09,1.16.12l294,22.11A30.65,30.65,0,0,0,337.39,503.79Z"/><path class="g" d="M435,417.46a13.9,13.9,0,0,1-3.63,4.26c-1.05.9-93.45,81.58-93.45,81.58a32.44,32.44,0,0,1-23.76,7.91h0a13.58,13.58,0,0,0,14.56-12.52l5-66.17A22.61,22.61,0,0,1,358,411.66Z"/></svg>